<?xml version="1.0" encoding="iso-8859-1"?>
<!-- Generator: Adobe Illustrator 19.0.0, SVG Export Plug-In . SVG Version: 6.00 Build 0)  -->
<svg version="1.1" id="Capa_1" xmlns="http://www.w3.org/2000/svg" xmlns:xlink="http://www.w3.org/1999/xlink" x="0px" y="0px"
	 viewBox="0 0 480.412 480.412" style="enable-background:new 0 0 480.412 480.412;" xml:space="preserve">
<g>
	<g>
		<circle cx="88.206" cy="144" r="8"/>
	</g>
</g>
<g>
	<g>
		<path d="M456.206,48c4.418,0,8-3.582,8-8V8c0-4.418-3.582-8-8-8h-400c-4.418,0-8,3.582-8,8v32c0,4.418,3.582,8,8,8h8v32h-8
			c-17.673,0-32,14.327-32,32v56c0.073,13.569,5.886,26.474,16,35.52c-14.517,6.336-23.928,20.641-24,36.48v232c0,4.418,3.582,8,8,8
			h112c2.949-0.008,5.654-1.637,7.04-4.24c1.307-2.546,1.155-5.597-0.4-8l-14.64-22.16V360h120v59.44l-76.08,45.68
			c-4.026,1.82-5.815,6.559-3.995,10.585s6.559,5.815,10.585,3.995c0.497-0.225,0.97-0.499,1.411-0.82l76.08-45.52l75.92,45.52
			c1.235,0.733,2.644,1.12,4.08,1.12c4.418-0.001,7.999-3.584,7.998-8.002c-0.001-2.823-1.49-5.437-3.918-6.878l-76.08-45.68V360
			h200v-16h-16V48H456.206z M40.206,112c0-8.837,7.163-16,16-16h60c-6.265,9.953-17.199,15.994-28.96,16h-31.04
			c-2.518,0-4.889,1.186-6.4,3.2l-9.6,12.8V112z M40.206,154.64l20-26.64h27.04c6.893-0.044,13.703-1.515,20-4.32l10.32,36.32h-5.36
			c-4.418,0-8,3.582-8,8c0,17.673-14.327,32-32,32s-32-14.327-32-32V154.64z M92.526,464l-12.32-18.4V352h-16v96
			c0.012,1.568,0.485,3.098,1.36,4.4l8,11.6h-41.36V328h80v120c0.012,1.568,0.485,3.098,1.36,4.4l8,11.6H92.526z M125.886,250.32
			c-2.3-2.27-5.741-2.933-8.72-1.68c-2.987,1.227-4.944,4.13-4.96,7.36v56h-80v-72c0-13.255,10.745-24,24-24h8v80h16v-80h20.08
			c10.616-0.019,20.804,4.183,28.32,11.68l33.92,34c3.111,3.137,8.177,3.158,11.314,0.046c0.016-0.015,0.031-0.031,0.046-0.046
			l36-36c3.244-3.736,8.904-4.135,12.64-0.891s4.135,8.904,0.891,12.64c-0.276,0.318-0.573,0.615-0.891,0.891l-36,36
			c-10.225,9.855-26.415,9.855-36.64,0L125.886,250.32z M168.206,244.72V216h28.72L168.206,244.72z M208.206,275.28V296h-28
			c6.644-1.953,12.712-5.495,17.68-10.32L208.206,275.28z M156.206,296h-28v-20.72l10.32,10.4
			C143.494,290.505,149.562,294.047,156.206,296z M432.206,344h-304v-32h88c4.418,0,8-3.582,8-8v-44.72l9.68-9.6
			c9.148-9.163,9.739-23.81,1.36-33.68h108.96v32h-48c-4.418,0-8,3.582-8,8v48c0,4.418,3.582,8,8,8h112c4.418,0,8-3.582,8-8v-48
			c0-4.418-3.582-8-8-8h-48v-40c0-4.418-3.582-8-8-8h-88v-40h48c4.418,0,8-3.582,8-8v-48c0-4.418-3.582-8-8-8h-112
			c-4.418,0-8,3.582-8,8v48c0,4.418,3.582,8,8,8h48v40h-88c-4.418,0-8,3.582-8,8v20.72l-12.32-12.32
			c-8.752-8.834-20.219-14.469-32.56-16c6.333-6.793,10.581-15.262,12.24-24.4h8.64c2.518,0,4.889-1.186,6.4-3.2
			c1.485-1.995,1.958-4.567,1.28-6.96l-14.64-51.28c7.265-6.594,12.461-15.153,14.96-24.64c0.607-2.393,0.076-4.932-1.44-6.88
			c-1.578-2-4.014-3.129-6.56-3.04h-48V48h352V344z M400.206,264v32h-96v-32H400.206z M208.206,144v-32h96v32H208.206z M64.206,32
			V16h384v16H64.206z"/>
	</g>
</g>
<g>
	<g>
		<rect x="192.206" y="64" width="80" height="16"/>
	</g>
</g>
<g>
	<g>
		<rect x="288.206" y="64" width="32" height="16"/>
	</g>
</g>
<g>
</g>
<g>
</g>
<g>
</g>
<g>
</g>
<g>
</g>
<g>
</g>
<g>
</g>
<g>
</g>
<g>
</g>
<g>
</g>
<g>
</g>
<g>
</g>
<g>
</g>
<g>
</g>
<g>
</g>
</svg>
